<svg xmlns="http://www.w3.org/2000/svg" width="900" height="540" viewBox="0 0 900 540" role="img" aria-labelledby="title desc">
  <title id="title">Графический плейсхолдер колеса</title>
  <desc id="desc">Индустриальная иллюстрация колеса без реальной фотографии</desc>
  <defs>
    <linearGradient id="bg" x1="0" y1="0" x2="1" y2="1">
      <stop offset="0" stop-color="#111418"/>
      <stop offset="1" stop-color="#242a31"/>
    </linearGradient>
    <pattern id="grid" width="42" height="42" patternUnits="userSpaceOnUse">
      <path d="M42 0H0V42" fill="none" stroke="#ffffff" stroke-opacity=".08" stroke-width="1"/>
    </pattern>
  </defs>
  <rect width="900" height="540" fill="url(#bg)"/>
  <rect width="900" height="540" fill="url(#grid)"/>
  <path d="M-60 430H960" stroke="#f5b642" stroke-width="8" stroke-opacity=".55"/>
  <circle cx="450" cy="270" r="146" fill="none" stroke="#f5b642" stroke-width="30"/>
  <circle cx="450" cy="270" r="82" fill="none" stroke="#f7f3eb" stroke-opacity=".8" stroke-width="18"/>
  <circle cx="450" cy="270" r="24" fill="#f5b642"/>
  <g stroke="#f7f3eb" stroke-opacity=".74" stroke-width="13" stroke-linecap="round">
    <path d="M450 168v50"/>
    <path d="M450 322v50"/>
    <path d="M348 270h50"/>
    <path d="M502 270h50"/>
    <path d="M378 198l36 36"/>
    <path d="M486 306l36 36"/>
    <path d="M522 198l-36 36"/>
    <path d="M414 306l-36 36"/>
  </g>
  <text x="44" y="76" fill="#f7f3eb" font-family="Arial, sans-serif" font-size="28" font-weight="700">Плейсхолдер</text>
  <text x="44" y="112" fill="#b7b0a5" font-family="Arial, sans-serif" font-size="20">Замените на реальное фото перед запуском</text>
</svg>
